{"title":"Pee Pa Pee Pa Ho Gaya (Tere Naal Love Ho Gaya) - Official Video","uid":6990840,"size":42536930,"categoryP":"video","categoryS":"music_videos","magnet":"?xt=urn:btih:8757a536970b68e2b6042d87bb43c2240b52e396&amp;dn=Pee+Pa+Pee+Pa+Ho+Gaya+%28Tere+Naal+Love+Ho+Gaya%29+-+Official+Video+&amp;tr=udp%3A%2F%2Ftracker.openbittorrent.com%3A80&amp;tr=udp%3A%2F%2Fopen.demonii.com%3A1337&amp;tr=udp%3A%2F%2Ftracker.coppersurfer.tk%3A6969&amp;tr=udp%3A%2F%2Fexodus.desync.com%3A6969","seeders":1,"leechers":0,"uploader":"AbhiHKRG","files":7,"time":1327697391,"description":"Cover :: &lt;a href=&quot;\nhttp://i.minus.com/iKI4hJGKAK7VX.png&quot; rel=&quot;nofollow&quot; target=&quot;_NEW&quot;&gt;\nhttp://i.minus.com/iKI4hJGKAK7VX.png&lt;/a&gt;\n\n\nScreen :: &lt;a href=&quot;\nhttp://i.minus.com/i3pAsRCeifIF0.png&quot; rel=&quot;nofollow&quot; target=&quot;_NEW&quot;&gt;\nhttp://i.minus.com/i3pAsRCeifIF0.png&lt;/a&gt;\n &lt;a href=&quot;\nhttp://i.minus.com/ibpuGqjtMa6Y0O.png&quot; rel=&quot;nofollow&quot; target=&quot;_NEW&quot;&gt;\nhttp://i.minus.com/ibpuGqjtMa6Y0O.png&lt;/a&gt;\n &lt;a href=&quot;\nhttp://i.minus.com/ieXQXcWBX0S7E.png&quot; rel=&quot;nofollow&quot; target=&quot;_NEW&quot;&gt;\nhttp://i.minus.com/ieXQXcWBX0S7E.png&lt;/a&gt;\n &lt;a href=&quot;\nhttp://i.minus.com/irWoXvR0ljqXN.png&quot; rel=&quot;nofollow&quot; target=&quot;_NEW&quot;&gt;\nhttp://i.minus.com/irWoXvR0ljqXN.png&lt;/a&gt;\n &lt;a href=&quot;\nhttp://i.minus.com/ixAOlNsHkrR78.jpg&quot; rel=&quot;nofollow&quot; target=&quot;_NEW&quot;&gt;\nhttp://i.minus.com/ixAOlNsHkrR78.jpg&lt;/a&gt;\n\n\nGeneral Info ::\nFormat                           : AVI\nFormat/Info                      : Audio Video Interleave\nFile size                        : 40.6 MiB\nDuration                         : 1mn 47s\nOverall bit rate                 : 3 158 Kbps\n\n\nVideo Info ::\nID                               : 0\nFormat                           : AVC\nFormat/Info                      : Advanced Video Codec\nFormat profile                   : &lt;a class=&quot;__cf_email__&quot; href=&quot;/cdn-cgi/l/email-protection&quot; data-cfemail=&quot;ca82a3ada28a86ffe4fb&quot;&gt;[email&amp;#160;protected]&lt;/a&gt;&lt;script cf-hash='f9e31' type=&quot;text/javascript&quot;&gt;\n/* &lt;![CDATA[ */!function(){try{var t=&quot;currentScript&quot;in document?document.currentScript:function(){for(var t=document.getElementsByTagName(&quot;script&quot;),e=t.length;e--;)if(t[e].getAttribute(&quot;cf-hash&quot;))return t[e]}();if(t&amp;&amp;t.previousSibling){var e,r,n,i,c=t.previousSibling,a=c.getAttribute(&quot;data-cfemail&quot;);if(a){for(e=&quot;&quot;,r=parseInt(a.substr(0,2),16),n=2;a.length-n;n+=2)i=parseInt(a.substr(n,2),16)^r,e+=String.fromCharCode(i);e=document.createTextNode(e),c.parentNode.replaceChild(e,c)}}}catch(u){}}();/* ]]&gt; */&lt;/script&gt;\nFormat settings, CABAC           : Yes\nFormat settings, ReFrames        : 2 frames\nCodec ID                         : H264\nDuration                         : 10s 0ms\nBit rate                         : 2 828 Kbps\nWidth                            : 1 280 pixels\nHeight                           : 544 pixels\nDisplay aspect ratio             : 2.35:1\nFrame rate                       : 30.000 fps\nColor space                      : YUV\nChroma subsampling               : 4:2:0\nBit depth                        : 8 bits\nScan type                        : Progressive\nBits/(Pixel*Frame)               : 0.135\nStream size                      : 36.3 MiB (89%)\n\n\nAudio Info ::\nID                               : 1\nFormat                           : MPEG Audio\nFormat version                   : Version 1\nFormat profile                   : Layer 3\nCodec ID                         : 55\nCodec ID/Hint                    : MP3\nDuration                         : 1mn 47s\nBit rate mode                    : Constant\nBit rate                         : 320 Kbps\nChannel(s)                       : 2 channels\nSampling rate                    : 48.0 KHz\nCompression mode                 : Lossy\nStream size                      : 4.11 MiB (10%)","torrent":{"xt":"urn:btih:8757a536970b68e2b6042d87bb43c2240b52e396","amp;dn":"Pee+Pa+Pee+Pa+Ho+Gaya+%28Tere+Naal+Love+Ho+Gaya%29+-+Official+Video+","amp;tr":["udp%3A%2F%2Ftracker.openbittorrent.com%3A80","udp%3A%2F%2Fopen.demonii.com%3A1337","udp%3A%2F%2Ftracker.coppersurfer.tk%3A6969","udp%3A%2F%2Fexodus.desync.com%3A6969"],"infoHash":"8757a536970b68e2b6042d87bb43c2240b52e396","infoHashBuffer":{"type":"Buffer","data":[135,87,165,54,151,11,104,226,182,4,45,135,187,67,194,36,11,82,227,150]},"announce":[],"urlList":[]}}